# xmcd
#
# Track frame offsets:
#	150
#	19315
#	35672
#	54947
#	74006
#	90695
#	107738
#	123515
#	140043
#	156869
#	173051
#	186457
#	200591
#	217970
#	234309
#	248899
#	265772
#
# Disc length: 3828
#
# Revision: 2
# Processed by: cddbd v1.5.1PL0 Copyright (c) Steve Scherf et al.
# Submitted via: audiograbber 1.83.01
# Normalized: r1:DSETVAR1
#
DISCID=fc0ef211
DTITLE=Various Artist - RPM RC61
DYEAR=1900
DGENRE=Country
TTITLE0=Vince Gill - Feels Like Love
TTITLE1=Darryl Worley - When You Need my Love
TTITLE2=Faith Hill w Tim McGraw - Let's Make Love
TTITLE3=Billy Gilman - One Voice
TTITLE4=Toby Keith - Country Comes To Town
TTITLE5=George Strait - Go On
TTITLE6=LeAnn Rimes - I Need You (Country Version)
TTITLE7=Montgomery Gentry - Self Made Man
TTITLE8=Mark Wills - Almost Doesn't Count
TTITLE9=Patty Loveless - That's The Kind Of Mood I'm In
TTITLE10=Aaron Tippin - Kiss This
TTITLE11=Diamond Rio - Stuff
TTITLE12=Steve Holy - Blue Moon (Radio Edit)
TTITLE13=Craig Morgan - Paradise
TTITLE14=Trisha Yearwood - Where Are You Now
TTITLE15=Clint Black - Love She Can't Live Without
TTITLE16=Garth Brooks - When You Come Back To Me Again
EXTD=
EXTT0=
EXTT1=
EXTT2=
EXTT3=
EXTT4=
EXTT5=
EXTT6=
EXTT7=
EXTT8=
EXTT9=
EXTT10=
EXTT11=
EXTT12=
EXTT13=
EXTT14=
EXTT15=
EXTT16=
PLAYORDER=
